<svg width="586" height="106" viewBox="0 0 586 106" fill="none" xmlns="http://www.w3.org/2000/svg">
<g filter="url(#filter0_dd_1_3)">
<path d="M16.338 45.056H62.418V55.936H16.338V45.056ZM17.49 84.864H69.714V96H4.69V6.39999H67.922V17.536H17.49V84.864ZM90.44 96V6.39999H100.936L160.2 80H154.696V6.39999H167.496V96H157L97.736 22.4H103.24V96H90.44ZM194.315 96V6.39999H207.115V96H194.315ZM220.372 96L260.948 6.39999H273.62L314.324 96H300.884L264.66 13.568H269.78L233.556 96H220.372ZM237.652 73.6L241.108 63.36H291.54L295.252 73.6H237.652ZM366.504 97.024C359.677 97.024 353.363 95.9147 347.56 93.696C341.843 91.392 336.851 88.192 332.584 84.096C328.403 79.9147 325.117 75.0507 322.728 69.504C320.339 63.9573 319.144 57.856 319.144 51.2C319.144 44.544 320.339 38.4427 322.728 32.896C325.117 27.3493 328.445 22.528 332.712 18.432C336.979 14.2507 341.971 11.0507 347.688 8.83199C353.491 6.528 359.805 5.376 366.632 5.376C373.544 5.376 379.901 6.57067 385.704 8.96C391.592 11.264 396.584 14.72 400.68 19.328L392.36 27.392C388.947 23.808 385.107 21.1627 380.84 19.456C376.573 17.664 372.008 16.768 367.144 16.768C362.109 16.768 357.416 17.6213 353.064 19.328C348.797 21.0347 345.085 23.424 341.928 26.496C338.771 29.568 336.296 33.2373 334.504 37.504C332.797 41.6853 331.944 46.2507 331.944 51.2C331.944 56.1493 332.797 60.7573 334.504 65.024C336.296 69.2053 338.771 72.832 341.928 75.904C345.085 78.976 348.797 81.3653 353.064 83.072C357.416 84.7787 362.109 85.632 367.144 85.632C372.008 85.632 376.573 84.7787 380.84 83.072C385.107 81.28 388.947 78.5493 392.36 74.88L400.68 82.944C396.584 87.552 391.592 91.0507 385.704 93.44C379.901 95.8293 373.501 97.024 366.504 97.024ZM414.034 35.968L420.434 9.98399L422.098 17.408C419.623 17.408 417.533 16.64 415.826 15.104C414.205 13.568 413.394 11.52 413.394 8.96C413.394 6.31466 414.205 4.224 415.826 2.688C417.533 1.06666 419.581 0.255997 421.97 0.255997C424.445 0.255997 426.45 1.10933 427.986 2.81599C429.522 4.43733 430.29 6.48533 430.29 8.96C430.29 9.728 430.247 10.5387 430.162 11.392C430.077 12.16 429.863 13.056 429.522 14.08C429.266 15.104 428.839 16.4267 428.242 18.048L422.098 35.968H414.034ZM443.486 96V87.296L479.966 52.096C483.209 49.024 485.598 46.336 487.134 44.032C488.755 41.6427 489.822 39.4667 490.334 37.504C490.931 35.456 491.23 33.4933 491.23 31.616C491.23 27.008 489.609 23.3813 486.366 20.736C483.123 18.0907 478.387 16.768 472.158 16.768C467.379 16.768 463.07 17.5787 459.23 19.2C455.39 20.736 452.062 23.168 449.246 26.496L440.542 18.944C443.955 14.592 448.521 11.264 454.238 8.96C460.041 6.57067 466.398 5.376 473.31 5.376C479.539 5.376 484.958 6.4 489.566 8.448C494.174 10.4107 497.715 13.2693 500.19 17.024C502.75 20.7787 504.03 25.216 504.03 30.336C504.03 33.2373 503.646 36.096 502.878 38.912C502.11 41.728 500.659 44.7147 498.526 47.872C496.393 51.0293 493.321 54.5707 489.31 58.496L456.798 89.856L453.726 84.864H507.87V96H443.486ZM516.986 96V87.296L553.466 52.096C556.709 49.024 559.098 46.336 560.634 44.032C562.255 41.6427 563.322 39.4667 563.834 37.504C564.431 35.456 564.73 33.4933 564.73 31.616C564.73 27.008 563.109 23.3813 559.866 20.736C556.623 18.0907 551.887 16.768 545.658 16.768C540.879 16.768 536.57 17.5787 532.73 19.2C528.89 20.736 525.562 23.168 522.746 26.496L514.042 18.944C517.455 14.592 522.021 11.264 527.738 8.96C533.541 6.57067 539.898 5.376 546.81 5.376C553.039 5.376 558.458 6.4 563.066 8.448C567.674 10.4107 571.215 13.2693 573.69 17.024C576.25 20.7787 577.53 25.216 577.53 30.336C577.53 33.2373 577.146 36.096 576.378 38.912C575.61 41.728 574.159 44.7147 572.026 47.872C569.893 51.0293 566.821 54.5707 562.81 58.496L530.298 89.856L527.226 84.864H581.37V96H516.986Z" fill="#797979"/>
<path d="M16.338 45.056V44.056H15.338V45.056H16.338ZM62.418 45.056H63.418V44.056H62.418V45.056ZM62.418 55.936V56.936H63.418V55.936H62.418ZM16.338 55.936H15.338V56.936H16.338V55.936ZM17.49 84.864H16.49V85.864H17.49V84.864ZM69.714 84.864H70.714V83.864H69.714V84.864ZM69.714 96V97H70.714V96H69.714ZM4.69 96H3.69V97H4.69V96ZM4.69 6.39999V5.39999H3.69V6.39999H4.69ZM67.922 6.39999H68.922V5.39999H67.922V6.39999ZM67.922 17.536V18.536H68.922V17.536H67.922ZM17.49 17.536V16.536H16.49V17.536H17.49ZM16.338 46.056H62.418V44.056H16.338V46.056ZM61.418 45.056V55.936H63.418V45.056H61.418ZM62.418 54.936H16.338V56.936H62.418V54.936ZM17.338 55.936V45.056H15.338V55.936H17.338ZM17.49 85.864H69.714V83.864H17.49V85.864ZM68.714 84.864V96H70.714V84.864H68.714ZM69.714 95H4.69V97H69.714V95ZM5.69 96V6.39999H3.69V96H5.69ZM4.69 7.39999H67.922V5.39999H4.69V7.39999ZM66.922 6.39999V17.536H68.922V6.39999H66.922ZM67.922 16.536H17.49V18.536H67.922V16.536ZM16.49 17.536V84.864H18.49V17.536H16.49ZM90.44 96H89.44V97H90.44V96ZM90.44 6.39999V5.39999H89.44V6.39999H90.44ZM100.936 6.39999L101.715 5.77282L101.415 5.39999H100.936V6.39999ZM160.2 80V81H162.289L160.979 79.3728L160.2 80ZM154.696 80H153.696V81H154.696V80ZM154.696 6.39999V5.39999H153.696V6.39999H154.696ZM167.496 6.39999H168.496V5.39999H167.496V6.39999ZM167.496 96V97H168.496V96H167.496ZM157 96L156.221 96.6272L156.521 97H157V96ZM97.736 22.4V21.4H95.6469L96.9571 23.0272L97.736 22.4ZM103.24 22.4H104.24V21.4H103.24V22.4ZM103.24 96V97H104.24V96H103.24ZM91.44 96V6.39999H89.44V96H91.44ZM90.44 7.39999H100.936V5.39999H90.44V7.39999ZM100.157 7.02716L159.421 80.6272L160.979 79.3728L101.715 5.77282L100.157 7.02716ZM160.2 79H154.696V81H160.2V79ZM155.696 80V6.39999H153.696V80H155.696ZM154.696 7.39999H167.496V5.39999H154.696V7.39999ZM166.496 6.39999V96H168.496V6.39999H166.496ZM167.496 95H157V97H167.496V95ZM157.779 95.3728L98.5149 21.7728L96.9571 23.0272L156.221 96.6272L157.779 95.3728ZM97.736 23.4H103.24V21.4H97.736V23.4ZM102.24 22.4V96H104.24V22.4H102.24ZM103.24 95H90.44V97H103.24V95ZM194.315 96H193.315V97H194.315V96ZM194.315 6.39999V5.39999H193.315V6.39999H194.315ZM207.115 6.39999H208.115V5.39999H207.115V6.39999ZM207.115 96V97H208.115V96H207.115ZM195.315 96V6.39999H193.315V96H195.315ZM194.315 7.39999H207.115V5.39999H194.315V7.39999ZM206.115 6.39999V96H208.115V6.39999H206.115ZM207.115 95H194.315V97H207.115V95ZM220.372 96L219.461 95.5875L218.821 97H220.372V96ZM260.948 6.39999V5.39999H260.303L260.037 5.98747L260.948 6.39999ZM273.62 6.39999L274.53 5.98639L274.264 5.39999H273.62V6.39999ZM314.324 96V97H315.877L315.234 95.5864L314.324 96ZM300.884 96L299.968 96.4023L300.231 97H300.884V96ZM264.66 13.568V12.568H263.128L263.745 13.9703L264.66 13.568ZM269.78 13.568L270.696 13.9703L271.312 12.568H269.78V13.568ZM233.556 96V97H234.209L234.472 96.4023L233.556 96ZM237.652 73.6L236.705 73.2802L236.259 74.6H237.652V73.6ZM241.108 63.36V62.36H240.39L240.161 63.0402L241.108 63.36ZM291.54 63.36L292.48 63.0192L292.241 62.36H291.54V63.36ZM295.252 73.6V74.6H296.678L296.192 73.2592L295.252 73.6ZM221.283 96.4125L261.859 6.81252L260.037 5.98747L219.461 95.5875L221.283 96.4125ZM260.948 7.39999H273.62V5.39999H260.948V7.39999ZM272.71 6.8136L313.414 96.4136L315.234 95.5864L274.53 5.98639L272.71 6.8136ZM314.324 95H300.884V97H314.324V95ZM301.8 95.5977L265.576 13.1657L263.745 13.9703L299.968 96.4023L301.8 95.5977ZM264.66 14.568H269.78V12.568H264.66V14.568ZM268.864 13.1657L232.64 95.5977L234.472 96.4023L270.696 13.9703L268.864 13.1657ZM233.556 95H220.372V97H233.556V95ZM238.599 73.9198L242.055 63.6798L240.161 63.0402L236.705 73.2802L238.599 73.9198ZM241.108 64.36H291.54V62.36H241.108V64.36ZM290.6 63.7008L294.312 73.9408L296.192 73.2592L292.48 63.0192L290.6 63.7008ZM295.252 72.6H237.652V74.6H295.252V72.6ZM347.56 93.696L347.186 94.6235L347.195 94.6269L347.203 94.6301L347.56 93.696ZM332.584 84.096L331.877 84.8031L331.884 84.8103L331.891 84.8174L332.584 84.096ZM322.728 69.504L323.646 69.1084L323.646 69.1084L322.728 69.504ZM322.728 32.896L323.646 33.2916L323.646 33.2916L322.728 32.896ZM332.712 18.432L333.405 19.1534L333.412 19.1462L332.712 18.432ZM347.688 8.83199L348.05 9.76429L348.057 9.76141L347.688 8.83199ZM385.704 8.96L385.323 9.88468L385.331 9.88803L385.34 9.89124L385.704 8.96ZM400.68 19.328L401.376 20.0461L402.064 19.3795L401.427 18.6636L400.68 19.328ZM392.36 27.392L391.636 28.0817L392.332 28.8122L393.056 28.1101L392.36 27.392ZM380.84 19.456L380.453 20.378L380.461 20.3813L380.469 20.3845L380.84 19.456ZM353.064 19.328L352.699 18.397L352.693 18.3995L353.064 19.328ZM334.504 37.504L333.582 37.1167L333.578 37.1261L334.504 37.504ZM334.504 65.024L333.576 65.3954L333.58 65.4067L333.585 65.4179L334.504 65.024ZM353.064 83.072L352.693 84.0005L352.699 84.003L353.064 83.072ZM380.84 83.072L381.211 84.0005L381.219 83.9973L381.227 83.994L380.84 83.072ZM392.36 74.88L393.056 74.1619L392.323 73.4515L391.628 74.1989L392.36 74.88ZM400.68 82.944L401.427 83.6084L402.064 82.8925L401.376 82.2259L400.68 82.944ZM385.704 93.44L385.328 92.5134L385.323 92.5153L385.704 93.44ZM366.504 96.024C359.787 96.024 353.595 94.9329 347.917 92.7619L347.203 94.6301C353.13 96.8964 359.567 98.024 366.504 98.024V96.024ZM347.934 92.7685C342.33 90.5102 337.447 87.3785 333.277 83.3746L331.891 84.8174C336.254 89.0055 341.356 92.2738 347.186 94.6235L347.934 92.7685ZM333.291 83.3889C329.201 79.299 325.987 74.5413 323.646 69.1084L321.81 69.8996C324.248 75.56 327.604 80.5303 331.877 84.8031L333.291 83.3889ZM323.646 69.1084C321.316 63.6989 320.144 57.7339 320.144 51.2H318.144C318.144 57.9781 319.361 64.2158 321.81 69.8996L323.646 69.1084ZM320.144 51.2C320.144 44.6661 321.316 38.7011 323.646 33.2916L321.81 32.5004C319.361 38.1842 318.144 44.4219 318.144 51.2H320.144ZM323.646 33.2916C325.984 27.8649 329.236 23.155 333.405 19.1534L332.019 17.7106C327.654 21.901 324.251 26.8338 321.81 32.5004L323.646 33.2916ZM333.412 19.1462C337.579 15.0623 342.455 11.9352 348.05 9.76426L347.326 7.89973C341.486 10.1661 336.378 13.4391 332.012 17.7178L333.412 19.1462ZM348.057 9.76141C353.732 7.50823 359.92 6.376 366.632 6.376V4.376C359.691 4.376 353.25 5.54777 347.319 7.90258L348.057 9.76141ZM366.632 6.376C373.427 6.376 379.653 7.5499 385.323 9.88468L386.085 8.03532C380.15 5.59143 373.661 4.376 366.632 4.376V6.376ZM385.34 9.89124C391.085 12.1393 395.944 15.5054 399.933 19.9924L401.427 18.6636C397.224 13.9346 392.099 10.3887 386.068 8.02876L385.34 9.89124ZM399.984 18.6099L391.664 26.6739L393.056 28.1101L401.376 20.0461L399.984 18.6099ZM393.084 26.7023C389.579 23.0225 385.621 20.2916 381.211 18.5275L380.469 20.3845C384.592 22.0338 388.314 24.5935 391.636 28.0817L393.084 26.7023ZM381.227 18.534C376.832 16.6879 372.134 15.768 367.144 15.768V17.768C371.882 17.768 376.315 18.6401 380.453 20.378L381.227 18.534ZM367.144 15.768C361.994 15.768 357.176 16.6413 352.699 18.397L353.429 20.259C357.656 18.6013 362.225 17.768 367.144 17.768V15.768ZM352.693 18.3995C348.31 20.1526 344.486 22.6121 341.231 25.7793L342.625 27.2127C345.685 24.2359 349.285 21.9167 353.435 20.2565L352.693 18.3995ZM341.231 25.7793C337.972 28.9496 335.423 32.7327 333.582 37.1168L335.426 37.8912C337.169 33.742 339.569 30.1864 342.625 27.2127L341.231 25.7793ZM333.578 37.1261C331.818 41.4384 330.944 46.1336 330.944 51.2H332.944C332.944 46.3678 333.777 41.9322 335.43 37.8819L333.578 37.1261ZM330.944 51.2C330.944 56.2667 331.818 61.0018 333.576 65.3954L335.432 64.6526C333.777 60.5129 332.944 56.032 332.944 51.2H330.944ZM333.585 65.4179C335.427 69.7164 337.976 73.4538 341.231 76.6207L342.625 75.1873C339.566 72.2102 337.165 68.6943 335.423 64.6301L333.585 65.4179ZM341.231 76.6207C344.486 79.7879 348.31 82.2474 352.693 84.0005L353.435 82.1435C349.285 80.4833 345.685 78.1641 342.625 75.1873L341.231 76.6207ZM352.699 84.003C357.176 85.7587 361.994 86.632 367.144 86.632V84.632C362.225 84.632 357.656 83.7987 353.429 82.141L352.699 84.003ZM367.144 86.632C372.128 86.632 376.82 85.7571 381.211 84.0005L380.469 82.1435C376.327 83.8002 371.888 84.632 367.144 84.632V86.632ZM381.227 83.994C385.635 82.1426 389.59 79.3256 393.092 75.5611L391.628 74.1989C388.303 77.7731 384.578 80.4174 380.453 82.15L381.227 83.994ZM391.664 75.5981L399.984 83.6621L401.376 82.2259L393.056 74.1619L391.664 75.5981ZM399.933 82.2796C395.942 86.7693 391.078 90.18 385.328 92.5134L386.08 94.3666C392.106 91.9214 397.226 88.3347 401.427 83.6084L399.933 82.2796ZM385.323 92.5153C379.655 94.8495 373.386 96.024 366.504 96.024V98.024C373.617 98.024 380.148 96.8092 386.085 94.3647L385.323 92.5153ZM414.034 35.968L413.063 35.7288L412.758 36.968H414.034V35.968ZM420.434 9.98399L421.41 9.76528L419.463 9.74484L420.434 9.98399ZM422.098 17.408V18.408H423.347L423.074 17.1893L422.098 17.408ZM415.826 15.104L415.138 15.8299L415.148 15.8387L415.157 15.8473L415.826 15.104ZM415.826 2.688L416.514 3.41395L416.515 3.413L415.826 2.688ZM427.986 2.81599L427.243 3.48496L427.251 3.49446L427.26 3.50374L427.986 2.81599ZM430.162 11.392L431.156 11.5024L431.157 11.4915L430.162 11.392ZM429.522 14.08L428.573 13.7638L428.561 13.8002L428.552 13.8375L429.522 14.08ZM428.242 18.048L427.304 17.7023L427.3 17.7129L427.296 17.7237L428.242 18.048ZM422.098 35.968V36.968H422.812L423.044 36.2923L422.098 35.968ZM415.005 36.2072L421.405 10.2232L419.463 9.74484L413.063 35.7288L415.005 36.2072ZM419.458 10.2027L421.122 17.6267L423.074 17.1893L421.41 9.76528L419.458 10.2027ZM422.098 16.408C419.849 16.408 418.003 15.718 416.495 14.3607L415.157 15.8473C417.062 17.562 419.397 18.408 422.098 18.408V16.408ZM416.514 14.378C415.122 13.0591 414.394 11.2894 414.394 8.96H412.394C412.394 11.7506 413.288 14.0769 415.138 15.8299L416.514 14.378ZM414.394 8.96C414.394 6.53435 415.128 4.7264 416.514 3.41395L415.138 1.96204C413.281 3.7216 412.394 6.09498 412.394 8.96H414.394ZM416.515 3.413C418.032 1.97115 419.833 1.256 421.97 1.256V-0.744003C419.329 -0.744003 417.033 0.162179 415.137 1.963L416.515 3.413ZM421.97 1.256C424.186 1.256 425.912 2.00675 427.243 3.48496L428.729 2.14703C426.988 0.211905 424.703 -0.744003 421.97 -0.744003V1.256ZM427.26 3.50374C428.6 4.9186 429.29 6.71114 429.29 8.96H431.29C431.29 6.25952 430.444 3.95606 428.712 2.12825L427.26 3.50374ZM429.29 8.96C429.29 9.6912 429.249 10.4685 429.167 11.2925L431.157 11.4915C431.245 10.6089 431.29 9.7648 431.29 8.96H429.29ZM429.168 11.2816C429.093 11.9581 428.9 12.7824 428.573 13.7638L430.471 14.3962C430.826 13.3296 431.06 12.3619 431.156 11.5024L429.168 11.2816ZM428.552 13.8375C428.308 14.8117 427.895 16.0964 427.304 17.7023L429.18 18.3937C429.783 16.7569 430.224 15.3963 430.492 14.3225L428.552 13.8375ZM427.296 17.7237L421.152 35.6437L423.044 36.2923L429.188 18.3723L427.296 17.7237ZM422.098 34.968H414.034V36.968H422.098V34.968ZM443.486 96H442.486V97H443.486V96ZM443.486 87.296L442.792 86.5764L442.486 86.8713V87.296H443.486ZM479.966 52.096L479.278 51.37L479.272 51.3764L479.966 52.096ZM487.134 44.032L486.306 43.4705L486.302 43.4773L487.134 44.032ZM490.334 37.504L489.374 37.224L489.37 37.2377L489.366 37.2516L490.334 37.504ZM486.366 20.736L485.734 21.5109L485.734 21.5109L486.366 20.736ZM459.23 19.2L459.601 20.1285L459.61 20.1249L459.619 20.1212L459.23 19.2ZM449.246 26.496L448.591 27.2513L449.355 27.9148L450.009 27.1419L449.246 26.496ZM440.542 18.944L439.755 18.3269L439.168 19.0757L439.887 19.6993L440.542 18.944ZM454.238 8.96L454.612 9.88754L454.619 9.88468L454.238 8.96ZM489.566 8.448L489.16 9.36181L489.167 9.36497L489.174 9.36802L489.566 8.448ZM500.19 17.024L499.355 17.5743L499.359 17.5809L499.364 17.5873L500.19 17.024ZM502.878 38.912L503.843 39.1751L503.843 39.1751L502.878 38.912ZM498.526 47.872L497.697 47.3121L497.697 47.3121L498.526 47.872ZM489.31 58.496L490.004 59.2158L490.009 59.2107L489.31 58.496ZM456.798 89.856L455.946 90.3801L456.598 91.4386L457.492 90.5757L456.798 89.856ZM453.726 84.864V83.864H451.936L452.874 85.3881L453.726 84.864ZM507.87 84.864H508.87V83.864H507.87V84.864ZM507.87 96V97H508.87V96H507.87ZM444.486 96V87.296H442.486V96H444.486ZM444.18 88.0156L480.66 52.8156L479.272 51.3764L442.792 86.5764L444.18 88.0156ZM480.654 52.8219C483.922 49.7257 486.371 46.9791 487.966 44.5867L486.302 43.4773C484.825 45.6929 482.495 48.3223 479.278 51.37L480.654 52.8219ZM487.961 44.5935C489.622 42.1465 490.751 39.8653 491.302 37.7564L489.366 37.2516C488.893 39.068 487.889 41.1388 486.307 43.4705L487.961 44.5935ZM491.294 37.784C491.914 35.6572 492.23 33.6 492.23 31.616H490.23C490.23 33.3867 489.948 35.2548 489.374 37.224L491.294 37.784ZM492.23 31.616C492.23 26.7421 490.499 22.8172 486.998 19.9611L485.734 21.5109C488.718 23.9455 490.23 27.2739 490.23 31.616H492.23ZM486.998 19.9611C483.508 17.1139 478.509 15.768 472.158 15.768V17.768C478.265 17.768 482.739 19.0674 485.734 21.5109L486.998 19.9611ZM472.158 15.768C467.265 15.768 462.821 16.5984 458.841 18.2787L459.619 20.1212C463.319 18.5589 467.494 17.768 472.158 17.768V15.768ZM458.859 18.2715C454.859 19.8715 451.398 22.4042 448.483 25.8501L450.009 27.1419C452.726 23.9318 455.921 21.6005 459.601 20.1285L458.859 18.2715ZM449.901 25.7407L441.197 18.1887L439.887 19.6993L448.591 27.2513L449.901 25.7407ZM441.329 19.5611C444.622 15.3623 449.038 12.1337 454.612 9.88752L453.864 8.03248C448.003 10.3943 443.289 13.8217 439.755 18.3269L441.329 19.5611ZM454.619 9.88468C460.289 7.5499 466.515 6.376 473.31 6.376V4.376C466.281 4.376 459.792 5.59143 453.857 8.03532L454.619 9.88468ZM473.31 6.376C479.431 6.376 484.706 7.38235 489.16 9.36181L489.972 7.53419C485.21 5.41765 479.647 4.376 473.31 4.376V6.376ZM489.174 9.36802C493.623 11.2628 497.001 14.0021 499.355 17.5743L501.025 16.4737C498.43 12.5366 494.725 9.55857 489.958 7.52797L489.174 9.36802ZM499.364 17.5873C501.797 21.1554 503.03 25.3906 503.03 30.336H505.03C505.03 25.0414 503.703 20.4019 501.016 16.4607L499.364 17.5873ZM503.03 30.336C503.03 33.1479 502.658 35.9181 501.913 38.6489L503.843 39.1751C504.634 36.2739 505.03 33.3268 505.03 30.336H503.03ZM501.913 38.6489C501.181 41.3325 499.787 44.2194 497.697 47.3121L499.355 48.4319C501.532 45.2099 503.039 42.1235 503.843 39.1751L501.913 38.6489ZM497.697 47.3121C495.615 50.3942 492.593 53.8832 488.611 57.7813L490.009 59.2107C494.048 55.2581 497.17 51.6645 499.355 48.4319L497.697 47.3121ZM488.616 57.7763L456.104 89.1363L457.492 90.5757L490.004 59.2157L488.616 57.7763ZM457.65 89.3319L454.578 84.3399L452.874 85.3881L455.946 90.3801L457.65 89.3319ZM453.726 85.864H507.87V83.864H453.726V85.864ZM506.87 84.864V96H508.87V84.864H506.87ZM507.87 95H443.486V97H507.87V95ZM516.986 96H515.986V97H516.986V96ZM516.986 87.296L516.292 86.5764L515.986 86.8713V87.296H516.986ZM553.466 52.096L552.778 51.37L552.772 51.3764L553.466 52.096ZM560.634 44.032L559.806 43.4705L559.802 43.4773L560.634 44.032ZM563.834 37.504L562.874 37.224L562.87 37.2377L562.866 37.2516L563.834 37.504ZM559.866 20.736L559.234 21.5109L559.234 21.5109L559.866 20.736ZM532.73 19.2L533.101 20.1285L533.11 20.1249L533.119 20.1212L532.73 19.2ZM522.746 26.496L522.091 27.2513L522.855 27.9148L523.509 27.1419L522.746 26.496ZM514.042 18.944L513.255 18.3269L512.668 19.0757L513.387 19.6993L514.042 18.944ZM527.738 8.96L528.112 9.88754L528.119 9.88468L527.738 8.96ZM563.066 8.448L562.66 9.36181L562.667 9.36497L562.674 9.36802L563.066 8.448ZM573.69 17.024L572.855 17.5743L572.859 17.5809L572.864 17.5873L573.69 17.024ZM576.378 38.912L577.343 39.1751L577.343 39.1751L576.378 38.912ZM572.026 47.872L571.197 47.3121L571.197 47.3121L572.026 47.872ZM562.81 58.496L563.504 59.2158L563.509 59.2107L562.81 58.496ZM530.298 89.856L529.446 90.3801L530.098 91.4386L530.992 90.5757L530.298 89.856ZM527.226 84.864V83.864H525.436L526.374 85.3881L527.226 84.864ZM581.37 84.864H582.37V83.864H581.37V84.864ZM581.37 96V97H582.37V96H581.37ZM517.986 96V87.296H515.986V96H517.986ZM517.68 88.0156L554.16 52.8156L552.772 51.3764L516.292 86.5764L517.68 88.0156ZM554.154 52.8219C557.422 49.7257 559.871 46.9791 561.466 44.5867L559.802 43.4773C558.325 45.6929 555.995 48.3223 552.778 51.37L554.154 52.8219ZM561.461 44.5935C563.122 42.1465 564.251 39.8653 564.802 37.7564L562.866 37.2516C562.393 39.068 561.389 41.1388 559.807 43.4705L561.461 44.5935ZM564.794 37.784C565.414 35.6572 565.73 33.6 565.73 31.616H563.73C563.73 33.3867 563.448 35.2548 562.874 37.224L564.794 37.784ZM565.73 31.616C565.73 26.7421 563.999 22.8172 560.498 19.9611L559.234 21.5109C562.218 23.9455 563.73 27.2739 563.73 31.616H565.73ZM560.498 19.9611C557.008 17.1139 552.009 15.768 545.658 15.768V17.768C551.765 17.768 556.239 19.0674 559.234 21.5109L560.498 19.9611ZM545.658 15.768C540.765 15.768 536.321 16.5984 532.341 18.2787L533.119 20.1212C536.819 18.5589 540.994 17.768 545.658 17.768V15.768ZM532.359 18.2715C528.359 19.8715 524.898 22.4042 521.983 25.8501L523.509 27.1419C526.226 23.9318 529.421 21.6005 533.101 20.1285L532.359 18.2715ZM523.401 25.7407L514.697 18.1887L513.387 19.6993L522.091 27.2513L523.401 25.7407ZM514.829 19.5611C518.122 15.3623 522.538 12.1337 528.112 9.88752L527.364 8.03248C521.503 10.3943 516.789 13.8217 513.255 18.3269L514.829 19.5611ZM528.119 9.88468C533.789 7.5499 540.015 6.376 546.81 6.376V4.376C539.781 4.376 533.292 5.59143 527.357 8.03532L528.119 9.88468ZM546.81 6.376C552.931 6.376 558.206 7.38235 562.66 9.36181L563.472 7.53419C558.71 5.41765 553.147 4.376 546.81 4.376V6.376ZM562.674 9.36802C567.123 11.2628 570.501 14.0021 572.855 17.5743L574.525 16.4737C571.93 12.5366 568.225 9.55857 563.458 7.52797L562.674 9.36802ZM572.864 17.5873C575.297 21.1554 576.53 25.3906 576.53 30.336H578.53C578.53 25.0414 577.203 20.4019 574.516 16.4607L572.864 17.5873ZM576.53 30.336C576.53 33.1479 576.158 35.9181 575.413 38.6489L577.343 39.1751C578.134 36.2739 578.53 33.3268 578.53 30.336H576.53ZM575.413 38.6489C574.681 41.3325 573.287 44.2194 571.197 47.3121L572.855 48.4319C575.032 45.2099 576.539 42.1235 577.343 39.1751L575.413 38.6489ZM571.197 47.3121C569.115 50.3942 566.093 53.8832 562.111 57.7813L563.509 59.2107C567.548 55.2581 570.67 51.6645 572.855 48.4319L571.197 47.3121ZM562.116 57.7763L529.604 89.1363L530.992 90.5757L563.504 59.2157L562.116 57.7763ZM531.15 89.3319L528.078 84.3399L526.374 85.3881L529.446 90.3801L531.15 89.3319ZM527.226 85.864H581.37V83.864H527.226V85.864ZM580.37 84.864V96H582.37V84.864H580.37ZM581.37 95H516.986V97H581.37V95Z" fill="#797979"/>
<path d="M16.338 45.056V44.056H15.338V45.056H16.338ZM62.418 45.056H63.418V44.056H62.418V45.056ZM62.418 55.936V56.936H63.418V55.936H62.418ZM16.338 55.936H15.338V56.936H16.338V55.936ZM17.49 84.864H16.49V85.864H17.49V84.864ZM69.714 84.864H70.714V83.864H69.714V84.864ZM69.714 96V97H70.714V96H69.714ZM4.69 96H3.69V97H4.69V96ZM4.69 6.39999V5.39999H3.69V6.39999H4.69ZM67.922 6.39999H68.922V5.39999H67.922V6.39999ZM67.922 17.536V18.536H68.922V17.536H67.922ZM17.49 17.536V16.536H16.49V17.536H17.49ZM16.338 46.056H62.418V44.056H16.338V46.056ZM61.418 45.056V55.936H63.418V45.056H61.418ZM62.418 54.936H16.338V56.936H62.418V54.936ZM17.338 55.936V45.056H15.338V55.936H17.338ZM17.49 85.864H69.714V83.864H17.49V85.864ZM68.714 84.864V96H70.714V84.864H68.714ZM69.714 95H4.69V97H69.714V95ZM5.69 96V6.39999H3.69V96H5.69ZM4.69 7.39999H67.922V5.39999H4.69V7.39999ZM66.922 6.39999V17.536H68.922V6.39999H66.922ZM67.922 16.536H17.49V18.536H67.922V16.536ZM16.49 17.536V84.864H18.49V17.536H16.49ZM90.44 96H89.44V97H90.44V96ZM90.44 6.39999V5.39999H89.44V6.39999H90.44ZM100.936 6.39999L101.715 5.77282L101.415 5.39999H100.936V6.39999ZM160.2 80V81H162.289L160.979 79.3728L160.2 80ZM154.696 80H153.696V81H154.696V80ZM154.696 6.39999V5.39999H153.696V6.39999H154.696ZM167.496 6.39999H168.496V5.39999H167.496V6.39999ZM167.496 96V97H168.496V96H167.496ZM157 96L156.221 96.6272L156.521 97H157V96ZM97.736 22.4V21.4H95.6469L96.9571 23.0272L97.736 22.4ZM103.24 22.4H104.24V21.4H103.24V22.4ZM103.24 96V97H104.24V96H103.24ZM91.44 96V6.39999H89.44V96H91.44ZM90.44 7.39999H100.936V5.39999H90.44V7.39999ZM100.157 7.02716L159.421 80.6272L160.979 79.3728L101.715 5.77282L100.157 7.02716ZM160.2 79H154.696V81H160.2V79ZM155.696 80V6.39999H153.696V80H155.696ZM154.696 7.39999H167.496V5.39999H154.696V7.39999ZM166.496 6.39999V96H168.496V6.39999H166.496ZM167.496 95H157V97H167.496V95ZM157.779 95.3728L98.5149 21.7728L96.9571 23.0272L156.221 96.6272L157.779 95.3728ZM97.736 23.4H103.24V21.4H97.736V23.4ZM102.24 22.4V96H104.24V22.4H102.24ZM103.24 95H90.44V97H103.24V95ZM194.315 96H193.315V97H194.315V96ZM194.315 6.39999V5.39999H193.315V6.39999H194.315ZM207.115 6.39999H208.115V5.39999H207.115V6.39999ZM207.115 96V97H208.115V96H207.115ZM195.315 96V6.39999H193.315V96H195.315ZM194.315 7.39999H207.115V5.39999H194.315V7.39999ZM206.115 6.39999V96H208.115V6.39999H206.115ZM207.115 95H194.315V97H207.115V95ZM220.372 96L219.461 95.5875L218.821 97H220.372V96ZM260.948 6.39999V5.39999H260.303L260.037 5.98747L260.948 6.39999ZM273.62 6.39999L274.53 5.98639L274.264 5.39999H273.62V6.39999ZM314.324 96V97H315.877L315.234 95.5864L314.324 96ZM300.884 96L299.968 96.4023L300.231 97H300.884V96ZM264.66 13.568V12.568H263.128L263.745 13.9703L264.66 13.568ZM269.78 13.568L270.696 13.9703L271.312 12.568H269.78V13.568ZM233.556 96V97H234.209L234.472 96.4023L233.556 96ZM237.652 73.6L236.705 73.2802L236.259 74.6H237.652V73.6ZM241.108 63.36V62.36H240.39L240.161 63.0402L241.108 63.36ZM291.54 63.36L292.48 63.0192L292.241 62.36H291.54V63.36ZM295.252 73.6V74.6H296.678L296.192 73.2592L295.252 73.6ZM221.283 96.4125L261.859 6.81252L260.037 5.98747L219.461 95.5875L221.283 96.4125ZM260.948 7.39999H273.62V5.39999H260.948V7.39999ZM272.71 6.8136L313.414 96.4136L315.234 95.5864L274.53 5.98639L272.71 6.8136ZM314.324 95H300.884V97H314.324V95ZM301.8 95.5977L265.576 13.1657L263.745 13.9703L299.968 96.4023L301.8 95.5977ZM264.66 14.568H269.78V12.568H264.66V14.568ZM268.864 13.1657L232.64 95.5977L234.472 96.4023L270.696 13.9703L268.864 13.1657ZM233.556 95H220.372V97H233.556V95ZM238.599 73.9198L242.055 63.6798L240.161 63.0402L236.705 73.2802L238.599 73.9198ZM241.108 64.36H291.54V62.36H241.108V64.36ZM290.6 63.7008L294.312 73.9408L296.192 73.2592L292.48 63.0192L290.6 63.7008ZM295.252 72.6H237.652V74.6H295.252V72.6ZM347.56 93.696L347.186 94.6235L347.195 94.6269L347.203 94.6301L347.56 93.696ZM332.584 84.096L331.877 84.8031L331.884 84.8103L331.891 84.8174L332.584 84.096ZM322.728 69.504L323.646 69.1084L323.646 69.1084L322.728 69.504ZM322.728 32.896L323.646 33.2916L323.646 33.2916L322.728 32.896ZM332.712 18.432L333.405 19.1534L333.412 19.1462L332.712 18.432ZM347.688 8.83199L348.05 9.76429L348.057 9.76141L347.688 8.83199ZM385.704 8.96L385.323 9.88468L385.331 9.88803L385.34 9.89124L385.704 8.96ZM400.68 19.328L401.376 20.0461L402.064 19.3795L401.427 18.6636L400.68 19.328ZM392.36 27.392L391.636 28.0817L392.332 28.8122L393.056 28.1101L392.36 27.392ZM380.84 19.456L380.453 20.378L380.461 20.3813L380.469 20.3845L380.84 19.456ZM353.064 19.328L352.699 18.397L352.693 18.3995L353.064 19.328ZM334.504 37.504L333.582 37.1167L333.578 37.1261L334.504 37.504ZM334.504 65.024L333.576 65.3954L333.58 65.4067L333.585 65.4179L334.504 65.024ZM353.064 83.072L352.693 84.0005L352.699 84.003L353.064 83.072ZM380.84 83.072L381.211 84.0005L381.219 83.9973L381.227 83.994L380.84 83.072ZM392.36 74.88L393.056 74.1619L392.323 73.4515L391.628 74.1989L392.36 74.88ZM400.68 82.944L401.427 83.6084L402.064 82.8925L401.376 82.2259L400.68 82.944ZM385.704 93.44L385.328 92.5134L385.323 92.5153L385.704 93.44ZM366.504 96.024C359.787 96.024 353.595 94.9329 347.917 92.7619L347.203 94.6301C353.13 96.8964 359.567 98.024 366.504 98.024V96.024ZM347.934 92.7685C342.33 90.5102 337.447 87.3785 333.277 83.3746L331.891 84.8174C336.254 89.0055 341.356 92.2738 347.186 94.6235L347.934 92.7685ZM333.291 83.3889C329.201 79.299 325.987 74.5413 323.646 69.1084L321.81 69.8996C324.248 75.56 327.604 80.5303 331.877 84.8031L333.291 83.3889ZM323.646 69.1084C321.316 63.6989 320.144 57.7339 320.144 51.2H318.144C318.144 57.9781 319.361 64.2158 321.81 69.8996L323.646 69.1084ZM320.144 51.2C320.144 44.6661 321.316 38.7011 323.646 33.2916L321.81 32.5004C319.361 38.1842 318.144 44.4219 318.144 51.2H320.144ZM323.646 33.2916C325.984 27.8649 329.236 23.155 333.405 19.1534L332.019 17.7106C327.654 21.901 324.251 26.8338 321.81 32.5004L323.646 33.2916ZM333.412 19.1462C337.579 15.0623 342.455 11.9352 348.05 9.76426L347.326 7.89973C341.486 10.1661 336.378 13.4391 332.012 17.7178L333.412 19.1462ZM348.057 9.76141C353.732 7.50823 359.92 6.376 366.632 6.376V4.376C359.691 4.376 353.25 5.54777 347.319 7.90258L348.057 9.76141ZM366.632 6.376C373.427 6.376 379.653 7.5499 385.323 9.88468L386.085 8.03532C380.15 5.59143 373.661 4.376 366.632 4.376V6.376ZM385.34 9.89124C391.085 12.1393 395.944 15.5054 399.933 19.9924L401.427 18.6636C397.224 13.9346 392.099 10.3887 386.068 8.02876L385.34 9.89124ZM399.984 18.6099L391.664 26.6739L393.056 28.1101L401.376 20.0461L399.984 18.6099ZM393.084 26.7023C389.579 23.0225 385.621 20.2916 381.211 18.5275L380.469 20.3845C384.592 22.0338 388.314 24.5935 391.636 28.0817L393.084 26.7023ZM381.227 18.534C376.832 16.6879 372.134 15.768 367.144 15.768V17.768C371.882 17.768 376.315 18.6401 380.453 20.378L381.227 18.534ZM367.144 15.768C361.994 15.768 357.176 16.6413 352.699 18.397L353.429 20.259C357.656 18.6013 362.225 17.768 367.144 17.768V15.768ZM352.693 18.3995C348.31 20.1526 344.486 22.6121 341.231 25.7793L342.625 27.2127C345.685 24.2359 349.285 21.9167 353.435 20.2565L352.693 18.3995ZM341.231 25.7793C337.972 28.9496 335.423 32.7327 333.582 37.1168L335.426 37.8912C337.169 33.742 339.569 30.1864 342.625 27.2127L341.231 25.7793ZM333.578 37.1261C331.818 41.4384 330.944 46.1336 330.944 51.2H332.944C332.944 46.3678 333.777 41.9322 335.43 37.8819L333.578 37.1261ZM330.944 51.2C330.944 56.2667 331.818 61.0018 333.576 65.3954L335.432 64.6526C333.777 60.5129 332.944 56.032 332.944 51.2H330.944ZM333.585 65.4179C335.427 69.7164 337.976 73.4538 341.231 76.6207L342.625 75.1873C339.566 72.2102 337.165 68.6943 335.423 64.6301L333.585 65.4179ZM341.231 76.6207C344.486 79.7879 348.31 82.2474 352.693 84.0005L353.435 82.1435C349.285 80.4833 345.685 78.1641 342.625 75.1873L341.231 76.6207ZM352.699 84.003C357.176 85.7587 361.994 86.632 367.144 86.632V84.632C362.225 84.632 357.656 83.7987 353.429 82.141L352.699 84.003ZM367.144 86.632C372.128 86.632 376.82 85.7571 381.211 84.0005L380.469 82.1435C376.327 83.8002 371.888 84.632 367.144 84.632V86.632ZM381.227 83.994C385.635 82.1426 389.59 79.3256 393.092 75.5611L391.628 74.1989C388.303 77.7731 384.578 80.4174 380.453 82.15L381.227 83.994ZM391.664 75.5981L399.984 83.6621L401.376 82.2259L393.056 74.1619L391.664 75.5981ZM399.933 82.2796C395.942 86.7693 391.078 90.18 385.328 92.5134L386.08 94.3666C392.106 91.9214 397.226 88.3347 401.427 83.6084L399.933 82.2796ZM385.323 92.5153C379.655 94.8495 373.386 96.024 366.504 96.024V98.024C373.617 98.024 380.148 96.8092 386.085 94.3647L385.323 92.5153ZM414.034 35.968L413.063 35.7288L412.758 36.968H414.034V35.968ZM420.434 9.98399L421.41 9.76528L419.463 9.74484L420.434 9.98399ZM422.098 17.408V18.408H423.347L423.074 17.1893L422.098 17.408ZM415.826 15.104L415.138 15.8299L415.148 15.8387L415.157 15.8473L415.826 15.104ZM415.826 2.688L416.514 3.41395L416.515 3.413L415.826 2.688ZM427.986 2.81599L427.243 3.48496L427.251 3.49446L427.26 3.50374L427.986 2.81599ZM430.162 11.392L431.156 11.5024L431.157 11.4915L430.162 11.392ZM429.522 14.08L428.573 13.7638L428.561 13.8002L428.552 13.8375L429.522 14.08ZM428.242 18.048L427.304 17.7023L427.3 17.7129L427.296 17.7237L428.242 18.048ZM422.098 35.968V36.968H422.812L423.044 36.2923L422.098 35.968ZM415.005 36.2072L421.405 10.2232L419.463 9.74484L413.063 35.7288L415.005 36.2072ZM419.458 10.2027L421.122 17.6267L423.074 17.1893L421.41 9.76528L419.458 10.2027ZM422.098 16.408C419.849 16.408 418.003 15.718 416.495 14.3607L415.157 15.8473C417.062 17.562 419.397 18.408 422.098 18.408V16.408ZM416.514 14.378C415.122 13.0591 414.394 11.2894 414.394 8.96H412.394C412.394 11.7506 413.288 14.0769 415.138 15.8299L416.514 14.378ZM414.394 8.96C414.394 6.53435 415.128 4.7264 416.514 3.41395L415.138 1.96204C413.281 3.7216 412.394 6.09498 412.394 8.96H414.394ZM416.515 3.413C418.032 1.97115 419.833 1.256 421.97 1.256V-0.744003C419.329 -0.744003 417.033 0.162179 415.137 1.963L416.515 3.413ZM421.97 1.256C424.186 1.256 425.912 2.00675 427.243 3.48496L428.729 2.14703C426.988 0.211905 424.703 -0.744003 421.97 -0.744003V1.256ZM427.26 3.50374C428.6 4.9186 429.29 6.71114 429.29 8.96H431.29C431.29 6.25952 430.444 3.95606 428.712 2.12825L427.26 3.50374ZM429.29 8.96C429.29 9.6912 429.249 10.4685 429.167 11.2925L431.157 11.4915C431.245 10.6089 431.29 9.7648 431.29 8.96H429.29ZM429.168 11.2816C429.093 11.9581 428.9 12.7824 428.573 13.7638L430.471 14.3962C430.826 13.3296 431.06 12.3619 431.156 11.5024L429.168 11.2816ZM428.552 13.8375C428.308 14.8117 427.895 16.0964 427.304 17.7023L429.18 18.3937C429.783 16.7569 430.224 15.3963 430.492 14.3225L428.552 13.8375ZM427.296 17.7237L421.152 35.6437L423.044 36.2923L429.188 18.3723L427.296 17.7237ZM422.098 34.968H414.034V36.968H422.098V34.968ZM443.486 96H442.486V97H443.486V96ZM443.486 87.296L442.792 86.5764L442.486 86.8713V87.296H443.486ZM479.966 52.096L479.278 51.37L479.272 51.3764L479.966 52.096ZM487.134 44.032L486.306 43.4705L486.302 43.4773L487.134 44.032ZM490.334 37.504L489.374 37.224L489.37 37.2377L489.366 37.2516L490.334 37.504ZM486.366 20.736L485.734 21.5109L485.734 21.5109L486.366 20.736ZM459.23 19.2L459.601 20.1285L459.61 20.1249L459.619 20.1212L459.23 19.2ZM449.246 26.496L448.591 27.2513L449.355 27.9148L450.009 27.1419L449.246 26.496ZM440.542 18.944L439.755 18.3269L439.168 19.0757L439.887 19.6993L440.542 18.944ZM454.238 8.96L454.612 9.88754L454.619 9.88468L454.238 8.96ZM489.566 8.448L489.16 9.36181L489.167 9.36497L489.174 9.36802L489.566 8.448ZM500.19 17.024L499.355 17.5743L499.359 17.5809L499.364 17.5873L500.19 17.024ZM502.878 38.912L503.843 39.1751L503.843 39.1751L502.878 38.912ZM498.526 47.872L497.697 47.3121L497.697 47.3121L498.526 47.872ZM489.31 58.496L490.004 59.2158L490.009 59.2107L489.31 58.496ZM456.798 89.856L455.946 90.3801L456.598 91.4386L457.492 90.5757L456.798 89.856ZM453.726 84.864V83.864H451.936L452.874 85.3881L453.726 84.864ZM507.87 84.864H508.87V83.864H507.87V84.864ZM507.87 96V97H508.87V96H507.87ZM444.486 96V87.296H442.486V96H444.486ZM444.18 88.0156L480.66 52.8156L479.272 51.3764L442.792 86.5764L444.18 88.0156ZM480.654 52.8219C483.922 49.7257 486.371 46.9791 487.966 44.5867L486.302 43.4773C484.825 45.6929 482.495 48.3223 479.278 51.37L480.654 52.8219ZM487.961 44.5935C489.622 42.1465 490.751 39.8653 491.302 37.7564L489.366 37.2516C488.893 39.068 487.889 41.1388 486.307 43.4705L487.961 44.5935ZM491.294 37.784C491.914 35.6572 492.23 33.6 492.23 31.616H490.23C490.23 33.3867 489.948 35.2548 489.374 37.224L491.294 37.784ZM492.23 31.616C492.23 26.7421 490.499 22.8172 486.998 19.9611L485.734 21.5109C488.718 23.9455 490.23 27.2739 490.23 31.616H492.23ZM486.998 19.9611C483.508 17.1139 478.509 15.768 472.158 15.768V17.768C478.265 17.768 482.739 19.0674 485.734 21.5109L486.998 19.9611ZM472.158 15.768C467.265 15.768 462.821 16.5984 458.841 18.2787L459.619 20.1212C463.319 18.5589 467.494 17.768 472.158 17.768V15.768ZM458.859 18.2715C454.859 19.8715 451.398 22.4042 448.483 25.8501L450.009 27.1419C452.726 23.9318 455.921 21.6005 459.601 20.1285L458.859 18.2715ZM449.901 25.7407L441.197 18.1887L439.887 19.6993L448.591 27.2513L449.901 25.7407ZM441.329 19.5611C444.622 15.3623 449.038 12.1337 454.612 9.88752L453.864 8.03248C448.003 10.3943 443.289 13.8217 439.755 18.3269L441.329 19.5611ZM454.619 9.88468C460.289 7.5499 466.515 6.376 473.31 6.376V4.376C466.281 4.376 459.792 5.59143 453.857 8.03532L454.619 9.88468ZM473.31 6.376C479.431 6.376 484.706 7.38235 489.16 9.36181L489.972 7.53419C485.21 5.41765 479.647 4.376 473.31 4.376V6.376ZM489.174 9.36802C493.623 11.2628 497.001 14.0021 499.355 17.5743L501.025 16.4737C498.43 12.5366 494.725 9.55857 489.958 7.52797L489.174 9.36802ZM499.364 17.5873C501.797 21.1554 503.03 25.3906 503.03 30.336H505.03C505.03 25.0414 503.703 20.4019 501.016 16.4607L499.364 17.5873ZM503.03 30.336C503.03 33.1479 502.658 35.9181 501.913 38.6489L503.843 39.1751C504.634 36.2739 505.03 33.3268 505.03 30.336H503.03ZM501.913 38.6489C501.181 41.3325 499.787 44.2194 497.697 47.3121L499.355 48.4319C501.532 45.2099 503.039 42.1235 503.843 39.1751L501.913 38.6489ZM497.697 47.3121C495.615 50.3942 492.593 53.8832 488.611 57.7813L490.009 59.2107C494.048 55.2581 497.17 51.6645 499.355 48.4319L497.697 47.3121ZM488.616 57.7763L456.104 89.1363L457.492 90.5757L490.004 59.2157L488.616 57.7763ZM457.65 89.3319L454.578 84.3399L452.874 85.3881L455.946 90.3801L457.65 89.3319ZM453.726 85.864H507.87V83.864H453.726V85.864ZM506.87 84.864V96H508.87V84.864H506.87ZM507.87 95H443.486V97H507.87V95ZM516.986 96H515.986V97H516.986V96ZM516.986 87.296L516.292 86.5764L515.986 86.8713V87.296H516.986ZM553.466 52.096L552.778 51.37L552.772 51.3764L553.466 52.096ZM560.634 44.032L559.806 43.4705L559.802 43.4773L560.634 44.032ZM563.834 37.504L562.874 37.224L562.87 37.2377L562.866 37.2516L563.834 37.504ZM559.866 20.736L559.234 21.5109L559.234 21.5109L559.866 20.736ZM532.73 19.2L533.101 20.1285L533.11 20.1249L533.119 20.1212L532.73 19.2ZM522.746 26.496L522.091 27.2513L522.855 27.9148L523.509 27.1419L522.746 26.496ZM514.042 18.944L513.255 18.3269L512.668 19.0757L513.387 19.6993L514.042 18.944ZM527.738 8.96L528.112 9.88754L528.119 9.88468L527.738 8.96ZM563.066 8.448L562.66 9.36181L562.667 9.36497L562.674 9.36802L563.066 8.448ZM573.69 17.024L572.855 17.5743L572.859 17.5809L572.864 17.5873L573.69 17.024ZM576.378 38.912L577.343 39.1751L577.343 39.1751L576.378 38.912ZM572.026 47.872L571.197 47.3121L571.197 47.3121L572.026 47.872ZM562.81 58.496L563.504 59.2158L563.509 59.2107L562.81 58.496ZM530.298 89.856L529.446 90.3801L530.098 91.4386L530.992 90.5757L530.298 89.856ZM527.226 84.864V83.864H525.436L526.374 85.3881L527.226 84.864ZM581.37 84.864H582.37V83.864H581.37V84.864ZM581.37 96V97H582.37V96H581.37ZM517.986 96V87.296H515.986V96H517.986ZM517.68 88.0156L554.16 52.8156L552.772 51.3764L516.292 86.5764L517.68 88.0156ZM554.154 52.8219C557.422 49.7257 559.871 46.9791 561.466 44.5867L559.802 43.4773C558.325 45.6929 555.995 48.3223 552.778 51.37L554.154 52.8219ZM561.461 44.5935C563.122 42.1465 564.251 39.8653 564.802 37.7564L562.866 37.2516C562.393 39.068 561.389 41.1388 559.807 43.4705L561.461 44.5935ZM564.794 37.784C565.414 35.6572 565.73 33.6 565.73 31.616H563.73C563.73 33.3867 563.448 35.2548 562.874 37.224L564.794 37.784ZM565.73 31.616C565.73 26.7421 563.999 22.8172 560.498 19.9611L559.234 21.5109C562.218 23.9455 563.73 27.2739 563.73 31.616H565.73ZM560.498 19.9611C557.008 17.1139 552.009 15.768 545.658 15.768V17.768C551.765 17.768 556.239 19.0674 559.234 21.5109L560.498 19.9611ZM545.658 15.768C540.765 15.768 536.321 16.5984 532.341 18.2787L533.119 20.1212C536.819 18.5589 540.994 17.768 545.658 17.768V15.768ZM532.359 18.2715C528.359 19.8715 524.898 22.4042 521.983 25.8501L523.509 27.1419C526.226 23.9318 529.421 21.6005 533.101 20.1285L532.359 18.2715ZM523.401 25.7407L514.697 18.1887L513.387 19.6993L522.091 27.2513L523.401 25.7407ZM514.829 19.5611C518.122 15.3623 522.538 12.1337 528.112 9.88752L527.364 8.03248C521.503 10.3943 516.789 13.8217 513.255 18.3269L514.829 19.5611ZM528.119 9.88468C533.789 7.5499 540.015 6.376 546.81 6.376V4.376C539.781 4.376 533.292 5.59143 527.357 8.03532L528.119 9.88468ZM546.81 6.376C552.931 6.376 558.206 7.38235 562.66 9.36181L563.472 7.53419C558.71 5.41765 553.147 4.376 546.81 4.376V6.376ZM562.674 9.36802C567.123 11.2628 570.501 14.0021 572.855 17.5743L574.525 16.4737C571.93 12.5366 568.225 9.55857 563.458 7.52797L562.674 9.36802ZM572.864 17.5873C575.297 21.1554 576.53 25.3906 576.53 30.336H578.53C578.53 25.0414 577.203 20.4019 574.516 16.4607L572.864 17.5873ZM576.53 30.336C576.53 33.1479 576.158 35.9181 575.413 38.6489L577.343 39.1751C578.134 36.2739 578.53 33.3268 578.53 30.336H576.53ZM575.413 38.6489C574.681 41.3325 573.287 44.2194 571.197 47.3121L572.855 48.4319C575.032 45.2099 576.539 42.1235 577.343 39.1751L575.413 38.6489ZM571.197 47.3121C569.115 50.3942 566.093 53.8832 562.111 57.7813L563.509 59.2107C567.548 55.2581 570.67 51.6645 572.855 48.4319L571.197 47.3121ZM562.116 57.7763L529.604 89.1363L530.992 90.5757L563.504 59.2157L562.116 57.7763ZM531.15 89.3319L528.078 84.3399L526.374 85.3881L529.446 90.3801L531.15 89.3319ZM527.226 85.864H581.37V83.864H527.226V85.864ZM580.37 84.864V96H582.37V84.864H580.37ZM581.37 95H516.986V97H581.37V95Z" fill="#797979"/>
</g>
<defs>
<filter id="filter0_dd_1_3" x="0.690002" y="0.255981" width="584.68" height="104.768" filterUnits="userSpaceOnUse" color-interpolation-filters="sRGB">
<feFlood flood-opacity="0" result="BackgroundImageFix"/>
<feColorMatrix in="SourceAlpha" type="matrix" values="0 0 0 0 0 0 0 0 0 0 0 0 0 0 0 0 0 0 127 0" result="hardAlpha"/>
<feOffset dy="4"/>
<feGaussianBlur stdDeviation="2"/>
<feComposite in2="hardAlpha" operator="out"/>
<feColorMatrix type="matrix" values="0 0 0 0 0 0 0 0 0 0 0 0 0 0 0 0 0 0 0.25 0"/>
<feBlend mode="normal" in2="BackgroundImageFix" result="effect1_dropShadow_1_3"/>
<feColorMatrix in="SourceAlpha" type="matrix" values="0 0 0 0 0 0 0 0 0 0 0 0 0 0 0 0 0 0 127 0" result="hardAlpha"/>
<feOffset dy="4"/>
<feGaussianBlur stdDeviation="2"/>
<feComposite in2="hardAlpha" operator="out"/>
<feColorMatrix type="matrix" values="0 0 0 0 0 0 0 0 0 0 0 0 0 0 0 0 0 0 0.25 0"/>
<feBlend mode="normal" in2="effect1_dropShadow_1_3" result="effect2_dropShadow_1_3"/>
<feBlend mode="normal" in="SourceGraphic" in2="effect2_dropShadow_1_3" result="shape"/>
</filter>
</defs>
</svg>
