<svg width="559" height="559" viewBox="0 0 559 559" fill="none" xmlns="http://www.w3.org/2000/svg">
<g clip-path="url(#clip0_2_2)">
<path d="M279.5 0C125.376 0 0 125.376 0 279.5C0 433.624 125.376 559 279.5 559C433.624 559 559 433.624 559 279.5C559 125.376 433.624 0 279.5 0ZM447.2 187.664C447.2 187.664 301.061 348.976 268.32 387.307C235.579 425.639 210.024 387.307 210.024 387.307L114.994 289.083C114.994 289.083 99.8214 265.924 126.973 244.363C152.527 223.6 173.29 244.363 173.29 244.363L240.37 314.637L407.271 158.916C407.271 158.916 423.243 147.736 440.013 162.11C452.79 174.089 447.2 187.664 447.2 187.664V187.664Z" fill="#CECECE"/>
</g>
<defs>
<clipPath id="clip0_2_2">
<rect width="559" height="559" fill="white"/>
</clipPath>
</defs>
</svg>
